# xmcd
#
# Track frame offsets:
#	150
#	20908
#	46759
#	61431
#	76464
#	95805
#	118090
#	131970
#	158507
#	174941
#	195199
#	209267
#
# Disc length: 3090
#
# Revision: 2
# Processed by: cddbd v1.5.1PL0 Copyright (c) Steve Scherf et al.
# Submitted via: audiograbber 1.81.03
# Normalized: r1:DSETVAR1
#
DISCID=a00c100c
DTITLE=Various Artist - Valentine's Day
DYEAR=1997
DGENRE=Blues
TTITLE0=Eyrythmics - Miracle Of Love
TTITLE1=Air Supply - Making Love Out Of Nothing At All
TTITLE2=The Mamas And The Papas - Dream A Little Dream Of Me
TTITLE3=Harry Nilson - Without U
TTITLE4=Dionne Warwick - Heartbreaker
TTITLE5=Kylie Minogue - Put Yourself In My Place
TTITLE6=Rick Astley - When I Fall In Love
TTITLE7=Sheena Easton - If U Go Away
TTITLE8=Iggy Pop - Sea Of Love
TTITLE9=Starship - Nothing 's Gonna Stop Us Now
TTITLE10=Dolly Parton - I 'll Always Love U
TTITLE11=Lisa Stansfield - So Natural
EXTD=
EXTT0=
EXTT1=
EXTT2=
EXTT3=
EXTT4=
EXTT5=
EXTT6=
EXTT7=
EXTT8=
EXTT9=
EXTT10=
EXTT11=
PLAYORDER=
